{
	"asset":{
		"version":"2.0",
		"generator":"Houdini GLTF 2.0 Exporter"
	},
	"accessors":[
		{
			"bufferView":0,
			"componentType":5123,
			"count":6000,
			"type":"SCALAR",
			"min":[0
			],
			"max":[1029
			]
		},
		{
			"bufferView":1,
			"componentType":5126,
			"count":1030,
			"type":"VEC3",
			"min":[-0.5,-0.498969376,-0.5
			],
			"max":[0.5,0.498969376,0.5
			]
		},
		{
			"bufferView":2,
			"componentType":5126,
			"count":1030,
			"type":"VEC3",
			"min":[-1,-0.997923493,-1
			],
			"max":[1,0.997923493,1
			]
		},
		{
			"bufferView":3,
			"componentType":5126,
			"count":1030,
			"type":"VEC4",
			"min":[-1,-0.0029054007,-0.885134161,1
			],
			"max":[-0.465335846,0.00169111043,0.761570096,1
			]
		},
		{
			"bufferView":4,
			"componentType":5126,
			"count":1030,
			"type":"VEC2",
			"min":[0.00224616961,0.0204411149
			],
			"max":[1.25,0.979558885
			]
		}
	],
	"buffers":[
		{
			"uri":"mat_001_data.bin",
			"byteLength":61440,
			"name":"main_buffer"
		}
	],
	"bufferViews":[
		{
			"buffer":0,
			"byteLength":12000,
			"target":34963
		},
		{
			"buffer":0,
			"byteOffset":12000,
			"byteLength":12360,
			"target":34962
		},
		{
			"buffer":0,
			"byteOffset":24360,
			"byteLength":12360,
			"target":34962
		},
		{
			"buffer":0,
			"byteOffset":36720,
			"byteLength":16480,
			"target":34962
		},
		{
			"buffer":0,
			"byteOffset":53200,
			"byteLength":8240,
			"target":34962
		}
	],
	"nodes":[
		{
			"name":"geo1",
			"mesh":0
		}
	],
	"meshes":[
		{
			"primitives":[
				{
					"attributes":{
						"TEXCOORD_0":4,
						"TANGENT":3,
						"POSITION":1,
						"NORMAL":2
					},
					"indices":0
				}
			],
			"name":"material5"
		}
	],
	"scenes":[
		{
			"nodes":[0
			]
		}
	],
	"scene":0
}
